<svg width="20" height="20" viewBox="0 0 20 20" fill="none" xmlns="http://www.w3.org/2000/svg">
<path fill-rule="evenodd" clip-rule="evenodd" d="M5.83329 1.45831C6.17847 1.45831 6.45829 1.73814 6.45829 2.08331V2.71891C7.00998 2.7083 7.6178 2.70831 8.28628 2.70831H11.7136C12.3821 2.70831 12.9899 2.7083 13.5416 2.71891V2.08331C13.5416 1.73814 13.8214 1.45831 14.1666 1.45831C14.5118 1.45831 14.7916 1.73814 14.7916 2.08331V2.77255C15.0082 2.78907 15.2134 2.80983 15.4075 2.83593C16.3845 2.96728 17.1753 3.24405 17.7989 3.86768C18.4226 4.49132 18.6993 5.28211 18.8307 6.25913C18.8727 6.57137 18.9008 6.91214 18.9197 7.28337C18.9447 7.35086 18.9583 7.42383 18.9583 7.49998C18.9583 7.55775 18.9505 7.61368 18.9358 7.66678C18.9583 8.3351 18.9583 9.09394 18.9583 9.95297V11.7137C18.9583 13.2451 18.9583 14.4582 18.8307 15.4075C18.6993 16.3845 18.4226 17.1753 17.7989 17.7989C17.1753 18.4226 16.3845 18.6993 15.4075 18.8307C14.4581 18.9583 13.2451 18.9583 11.7136 18.9583H8.28628C6.75482 18.9583 5.54179 18.9583 4.59244 18.8307C3.61542 18.6993 2.82463 18.4226 2.201 17.7989C1.57736 17.1753 1.3006 16.3845 1.16924 15.4075C1.0416 14.4582 1.04161 13.2451 1.04163 11.7137V9.95297C1.04162 9.09394 1.04161 8.3351 1.06413 7.66679C1.04946 7.61369 1.04163 7.55775 1.04163 7.49998C1.04163 7.42383 1.05525 7.35085 1.08018 7.28337C1.09909 6.91213 1.12726 6.57137 1.16924 6.25913C1.3006 5.28211 1.57736 4.49132 2.201 3.86768C2.82463 3.24405 3.61542 2.96728 4.59244 2.83593C4.78655 2.80983 4.99167 2.78907 5.20829 2.77255V2.08331C5.20829 1.73814 5.48811 1.45831 5.83329 1.45831ZM2.30253 8.12498C2.29189 8.66892 2.29163 9.2883 2.29163 9.99998V11.6666C2.29163 13.2557 2.29295 14.3846 2.40809 15.2409C2.52081 16.0793 2.7322 16.5624 3.08488 16.9151C3.43755 17.2677 3.92059 17.4791 4.759 17.5918C5.61539 17.707 6.74428 17.7083 8.33329 17.7083H11.6666C13.2556 17.7083 14.3845 17.707 15.2409 17.5918C16.0793 17.4791 16.5624 17.2677 16.915 16.9151C17.2677 16.5624 17.4791 16.0793 17.5918 15.2409C17.707 14.3846 17.7083 13.2557 17.7083 11.6666V9.99998C17.7083 9.2883 17.708 8.66892 17.6974 8.12498H2.30253ZM17.6402 6.87498H2.3597C2.37304 6.71715 2.389 6.56767 2.40809 6.42569C2.52081 5.58728 2.7322 5.10424 3.08488 4.75157C3.43755 4.39889 3.92059 4.1875 4.759 4.07478C5.61539 3.95964 6.74428 3.95831 8.33329 3.95831H11.6666C13.2556 3.95831 14.3845 3.95964 15.2409 4.07478C16.0793 4.1875 16.5624 4.39889 16.915 4.75157C17.2677 5.10424 17.4791 5.58728 17.5918 6.42569C17.6109 6.56768 17.6269 6.71715 17.6402 6.87498ZM8.98914 10.2559C9.22268 10.3526 9.37496 10.5805 9.37496 10.8333V14.1666C9.37496 14.5118 9.09514 14.7916 8.74996 14.7916C8.40478 14.7916 8.12496 14.5118 8.12496 14.1666V12.3422L7.9419 12.5253C7.69782 12.7693 7.3021 12.7693 7.05802 12.5253C6.81394 12.2812 6.81394 11.8854 7.05802 11.6414L8.30802 10.3914C8.48677 10.2126 8.75559 10.1592 8.98914 10.2559ZM11.6666 11.4583C11.5516 11.4583 11.4583 11.5516 11.4583 11.6666V13.3333C11.4583 13.4484 11.5516 13.5416 11.6666 13.5416C11.7817 13.5416 11.875 13.4484 11.875 13.3333V11.6666C11.875 11.5516 11.7817 11.4583 11.6666 11.4583ZM10.2083 11.6666C10.2083 10.8612 10.8612 10.2083 11.6666 10.2083C12.472 10.2083 13.125 10.8612 13.125 11.6666V13.3333C13.125 14.1387 12.472 14.7916 11.6666 14.7916C10.8612 14.7916 10.2083 14.1387 10.2083 13.3333V11.6666Z" fill="#010101" fill-opacity="0.6"/>
</svg>
