<svg width="21" height="22" viewBox="0 0 21 22" fill="none" xmlns="http://www.w3.org/2000/svg">
<path d="M20.6667 10.9067C20.6667 10.2045 20.6051 9.5378 20.4996 8.88892H10.5577V12.8978H16.2501C15.9949 14.2134 15.2471 15.3245 14.1386 16.08V18.7467H17.5346C19.523 16.8889 20.6667 14.1511 20.6667 10.9067Z" fill="#4285F4"/>
<path d="M10.5577 21.3333C13.4083 21.3333 15.7926 20.3733 17.5346 18.7467L14.1386 16.08C13.1884 16.72 11.983 17.1111 10.5577 17.1111C7.80395 17.1111 5.47246 15.2355 4.63664 12.7022H1.13501V15.4489C2.86823 18.9333 6.43145 21.3333 10.5577 21.3333Z" fill="#34A853"/>
<path d="M4.63658 12.7022C4.41663 12.0622 4.30226 11.3778 4.30226 10.6667C4.30226 9.95557 4.42543 9.27113 4.63658 8.63113V5.88446H1.13495C0.413509 7.32446 0 8.94224 0 10.6667C0 12.3911 0.413509 14.0089 1.13495 15.4489L4.63658 12.7022Z" fill="#FBBC05"/>
<path d="M10.5577 4.22222C12.115 4.22222 13.5051 4.76444 14.6049 5.82222L17.6138 2.78222C15.7926 1.05778 13.4083 0 10.5577 0C6.43145 0 2.86823 2.4 1.13501 5.88444L4.63664 8.63111C5.47246 6.09778 7.80395 4.22222 10.5577 4.22222Z" fill="#EA4335"/>
</svg>
