<svg width="20" height="20" viewBox="0 0 20 20" fill="none" xmlns="http://www.w3.org/2000/svg">
<g clip-path="url(#clip0_38_306)">
<path d="M1.66669 13.3333C1.66669 10.9763 1.66669 9.79778 2.39892 9.06555C3.13115 8.33331 4.30966 8.33331 6.66669 8.33331H13.3334C15.6904 8.33331 16.8689 8.33331 17.6011 9.06555C18.3334 9.79778 18.3334 10.9763 18.3334 13.3333C18.3334 15.6903 18.3334 16.8688 17.6011 17.6011C16.8689 18.3333 15.6904 18.3333 13.3334 18.3333H6.66669C4.30966 18.3333 3.13115 18.3333 2.39892 17.6011C1.66669 16.8688 1.66669 15.6903 1.66669 13.3333Z" stroke="#010101" stroke-opacity="0.6" stroke-width="1.5"/>
<path d="M5 8.33335V6.66669C5 3.90526 7.23858 1.66669 10 1.66669C12.7614 1.66669 15 3.90526 15 6.66669V8.33335" stroke="#010101" stroke-opacity="0.6" stroke-width="1.5" stroke-linecap="round"/>
<path d="M6.66669 13.3333H6.67419M9.99252 13.3333H10M13.3259 13.3333H13.3334" stroke="#010101" stroke-opacity="0.6" stroke-width="2" stroke-linecap="round" stroke-linejoin="round"/>
</g>
<defs>
<clipPath id="clip0_38_306">
<rect width="20" height="20" fill="white"/>
</clipPath>
</defs>
</svg>
