<svg width="24" height="24" viewBox="0 0 24 24" fill="none" xmlns="http://www.w3.org/2000/svg">
<path d="M10.1906 1.28589C8.88281 1.30792 7.70156 2.08792 7.16718 3.29401L13.5656 5.22667C13.8469 3.54901 12.8391 1.92245 11.2172 1.42886C10.9266 1.34073 10.6219 1.29245 10.3172 1.28589H10.1906ZM6.92344 4.10214C6.6375 5.78448 7.64531 7.41573 9.27187 7.90792C10.9031 8.40011 12.6422 7.59386 13.3266 6.03292L6.92344 4.10214ZM19.3687 6.17823C18.1828 6.18292 16.9219 6.75479 15.9703 8.10011L10.1203 16.3923C8.55 18.6142 9.23437 20.9392 10.7812 22.036C12.3328 23.1376 14.7469 23.011 16.3172 20.7892L22.1625 12.5017C23.7328 10.2751 23.0484 7.95479 21.5016 6.85323C20.9203 6.44073 20.2219 6.20167 19.4859 6.17823H19.3687ZM19.2844 6.98917C19.3453 6.98917 19.4062 6.98917 19.4625 6.99386C20.0297 7.01729 20.5641 7.21886 21.0141 7.54229C22.2187 8.39542 22.8234 10.097 21.4687 12.0142L18.4453 16.3032C16.7672 15.8532 14.6109 14.3204 13.6312 12.8814L16.6641 8.58761C17.4562 7.46729 18.3984 7.00792 19.2844 6.98917ZM4.27734 10.561C3.8264 10.5657 3.38156 10.6595 2.96812 10.8423C1.41609 11.522 0.608436 13.2564 1.08187 14.8876L7.20937 12.211C6.59531 11.1751 5.47969 10.547 4.27734 10.561ZM7.54218 12.9798L1.41562 15.661C2.28047 17.1329 4.10156 17.7235 5.6625 17.0439C7.21875 16.3595 8.025 14.6157 7.54218 12.9798Z" fill="#6D00AC"/>
</svg>
