<svg width="24" height="24" viewBox="0 0 24 24" fill="none" xmlns="http://www.w3.org/2000/svg">
<path d="M6.53102 13.281L8.78102 15.531M8.78102 11.031L11.031 13.281M13.281 6.53102L15.531 8.78102M11.031 8.78102L13.281 11.031M16.773 4.04552L19.9545 7.22702C20.0951 7.36766 20.1741 7.55839 20.1741 7.75727C20.1741 7.95614 20.0951 8.14687 19.9545 8.28752L8.28752 19.9545C8.14687 20.0951 7.95614 20.1741 7.75727 20.1741C7.55839 20.1741 7.36766 20.0951 7.22702 19.9545L4.04552 16.773C3.90491 16.6324 3.82593 16.4416 3.82593 16.2428C3.82593 16.0439 3.90491 15.8532 4.04552 15.7125L15.7125 4.04552C15.8532 3.90491 16.0439 3.82593 16.2428 3.82593C16.4416 3.82593 16.6324 3.90491 16.773 4.04552Z" stroke="#010101" stroke-opacity="0.6"/>
</svg>
