<svg width="15" height="18" viewBox="0 0 15 18" fill="none" xmlns="http://www.w3.org/2000/svg">
<path fill-rule="evenodd" clip-rule="evenodd" d="M7.29178 0C5.10565 0 3.33345 1.77221 3.33345 3.95833C3.33345 6.14446 5.10565 7.91667 7.29178 7.91667C9.47791 7.91667 11.2501 6.14446 11.2501 3.95833C11.2501 1.77221 9.47791 0 7.29178 0ZM4.58345 3.95833C4.58345 2.46256 5.79601 1.25 7.29178 1.25C8.78755 1.25 10.0001 2.46256 10.0001 3.95833C10.0001 5.4541 8.78755 6.66667 7.29178 6.66667C5.79601 6.66667 4.58345 5.4541 4.58345 3.95833Z" fill="#010101" fill-opacity="0.6"/>
<path fill-rule="evenodd" clip-rule="evenodd" d="M7.29178 9.16667C5.36382 9.16667 3.58755 9.6049 2.27132 10.3453C0.974681 11.0746 0.000111847 12.1801 0.000111847 13.5417L5.65635e-05 13.6266C-0.000884892 14.5948 -0.00206649 15.81 1.06379 16.678C1.58835 17.1051 2.32218 17.4089 3.31362 17.6096C4.30783 17.8108 5.60363 17.9167 7.29178 17.9167C8.97993 17.9167 10.2757 17.8108 11.2699 17.6096C12.2614 17.4089 12.9952 17.1051 13.5198 16.678C14.5856 15.81 14.5844 14.5948 14.5835 13.6266L14.5834 13.5417C14.5834 12.1801 13.6089 11.0746 12.3122 10.3453C10.996 9.6049 9.21974 9.16667 7.29178 9.16667ZM1.25011 13.5417C1.25011 12.8322 1.76793 12.0626 2.88415 11.4348C3.98078 10.8179 5.53784 10.4167 7.29178 10.4167C9.04572 10.4167 10.6028 10.8179 11.6994 11.4348C12.8156 12.0626 13.3334 12.8322 13.3334 13.5417C13.3334 14.6315 13.2999 15.245 12.7305 15.7087C12.4217 15.9601 11.9055 16.2056 11.022 16.3844C10.1412 16.5627 8.93697 16.6667 7.29178 16.6667C5.64659 16.6667 4.44239 16.5627 3.5616 16.3844C2.67805 16.2056 2.16188 15.9601 1.8531 15.7087C1.28371 15.245 1.25011 14.6315 1.25011 13.5417Z" fill="#010101" fill-opacity="0.6"/>
</svg>
