<svg width="20" height="20" viewBox="0 0 20 20" fill="none" xmlns="http://www.w3.org/2000/svg">
<path d="M17.0833 1.66669H2.91663C2.58511 1.66669 2.26716 1.79838 2.03274 2.0328C1.79832 2.26722 1.66663 2.58517 1.66663 2.91669V17.0834C1.66663 17.4149 1.79832 17.7328 2.03274 17.9672C2.26716 18.2017 2.58511 18.3334 2.91663 18.3334H17.0833C17.4148 18.3334 17.7328 18.2017 17.9672 17.9672C18.2016 17.7328 18.3333 17.4149 18.3333 17.0834V2.91669C18.3333 2.58517 18.2016 2.26722 17.9672 2.0328C17.7328 1.79838 17.4148 1.66669 17.0833 1.66669Z" stroke="#010101" stroke-opacity="0.6" stroke-linejoin="round"/>
<path d="M5 7.93921C6.38528 6.27254 8.05194 5.43921 10 5.43921C11.9478 5.43921 13.6144 6.27254 15 7.93921" stroke="#010101" stroke-opacity="0.6" stroke-linecap="round"/>
<path d="M10 12.9167C10.3315 12.9167 10.6495 12.785 10.8839 12.5506C11.1183 12.3162 11.25 11.9982 11.25 11.6667C11.25 11.3352 11.1183 11.0172 10.8839 10.7828C10.6495 10.5484 10.3315 10.4167 10 10.4167C9.66848 10.4167 9.35054 10.5484 9.11612 10.7828C8.8817 11.0172 8.75 11.3352 8.75 11.6667C8.75 11.9982 8.8817 12.3162 9.11612 12.5506C9.35054 12.785 9.66848 12.9167 10 12.9167Z" stroke="#010101" stroke-opacity="0.6"/>
<path d="M7.91663 8.75L10.0033 11.6667" stroke="#010101" stroke-opacity="0.6" stroke-linecap="round"/>
</svg>
